<?xml version="1.0" encoding="utf-8"?>
<!-- Generator: Adobe Illustrator 24.1.0, SVG Export Plug-In . SVG Version: 6.00 Build 0)  -->
<svg version="1.1" id="圖層_1" xmlns="http://www.w3.org/2000/svg" xmlns:xlink="http://www.w3.org/1999/xlink" x="0px" y="0px"
	 viewBox="0 0 300 110" style="enable-background:new 0 0 300 110;" xml:space="preserve">
<style type="text/css">
	.st0{fill:#FFFFFF;}
</style>
<g id="圖層_2_1_">
	<g id="XMLID_181_">
		<path id="XMLID_206_" class="st0" d="M95.6,81.2c0,1.6,0.2,3,0.6,4.2s1,2.2,1.7,2.9c0.7,0.8,1.5,1.3,2.3,1.7
			c0.9,0.4,1.7,0.6,2.6,0.6s1.7-0.2,2.5-0.5c0.7-0.4,1.4-0.8,2-1.4s1-1.3,1.4-2c0.4-0.8,0.6-1.5,0.8-2.3h4.2
			c-0.3,1.3-0.7,2.6-1.3,3.7c-0.6,1.2-1.3,2.2-2.3,3c-0.9,0.9-2,1.5-3.2,2s-2.6,0.7-4.1,0.7c-1.7,0-3.3-0.3-4.7-0.9
			c-1.4-0.4-2.6-1.2-3.6-2.3s-1.8-2.4-2.3-4s-0.8-3.4-0.8-5.4c0-1.6,0.3-3.1,0.8-4.5s1.2-2.7,2.2-3.8c1-1.1,2.2-2,3.6-2.7s3-1,4.8-1
			c1.5,0,2.9,0.2,4.1,0.6s2.3,1,3.2,1.7c0.9,0.7,1.7,1.6,2.3,2.6c0.6,1,1.1,2.1,1.5,3.3h-4.4c-0.6-1.7-1.5-2.9-2.6-3.8
			c-1.1-0.8-2.5-1.2-4.1-1.2c-1.1,0-2,0.2-2.9,0.7s-1.6,1.1-2.3,1.9c-0.6,0.8-1.1,1.7-1.5,2.8C95.8,78.9,95.6,80,95.6,81.2"/>
		<path id="XMLID_192_" class="st0" d="M137.3,76.7c0,1-0.3,2-0.8,2.9c-0.6,0.9-1.4,1.7-2.6,2.4c0.5,0.2,1,0.4,1.4,0.8
			c0.4,0.3,0.7,0.7,1,1.1c0.2,0.4,0.4,0.9,0.5,1.4s0.2,1,0.2,1.4v3.4c0,0.4,0.1,0.9,0.3,1.5s0.5,1.2,0.9,1.8h-4.6
			c-0.2-0.3-0.3-0.6-0.4-0.8c-0.1-0.3-0.2-0.6-0.2-0.9c-0.1-0.3-0.1-0.5-0.1-0.8c0-0.2,0-0.5,0-0.7v-3.6c0-0.3-0.1-0.7-0.2-1
			c-0.1-0.4-0.3-0.7-0.6-0.9c-0.3-0.3-0.6-0.5-1.1-0.7c-0.4-0.2-1-0.3-1.6-0.3h-6.3v9.7h-4.2V69.8h10.5c1.3,0,2.4,0.2,3.4,0.6
			s1.8,0.9,2.5,1.6s1.2,1.4,1.5,2.2C137.1,75,137.3,75.8,137.3,76.7 M123,80.3h6.3c0.5,0,1-0.1,1.4-0.3c0.5-0.2,0.9-0.4,1.2-0.7
			c0.3-0.3,0.6-0.7,0.8-1.1s0.3-0.9,0.3-1.5c0-0.5-0.1-1-0.3-1.4s-0.5-0.8-0.8-1.1c-0.3-0.3-0.7-0.6-1.2-0.8c-0.5-0.2-1-0.3-1.5-0.3
			h-6.3L123,80.3C122.9,80.3,123,80.3,123,80.3z"/>
		<rect id="XMLID_191_" x="144.1" y="69.8" class="st0" width="4.2" height="23.6"/>
		<path id="XMLID_190_" class="st0" d="M158,85.1c0.1,0.8,0.2,1.6,0.5,2.2c0.3,0.7,0.7,1.2,1.1,1.7c0.5,0.5,1,0.9,1.7,1.1
			s1.3,0.4,2.1,0.4c0.7,0,1.3-0.1,1.9-0.2c0.6-0.1,1.2-0.4,1.6-0.7c0.5-0.3,0.8-0.7,1.1-1.2s0.4-1.1,0.4-1.8c0-0.6-0.2-1.2-0.6-1.6
			c-0.4-0.4-0.9-0.8-1.6-1.1c-0.7-0.3-1.4-0.6-2.3-0.9c-0.8-0.3-1.7-0.5-2.6-0.8c-0.9-0.3-1.7-0.6-2.6-1c-0.8-0.4-1.6-0.8-2.3-1.3
			s-1.2-1.1-1.6-1.9c-0.4-0.7-0.6-1.6-0.6-2.6s0.2-2,0.6-2.7c0.4-0.8,1-1.5,1.8-2s1.7-0.9,2.8-1.2c1.1-0.3,2.2-0.4,3.5-0.4
			c1.7,0,3.1,0.2,4.2,0.7c1.1,0.5,2,1.1,2.7,1.8c0.7,0.8,1.2,1.6,1.5,2.5s0.5,1.8,0.5,2.7h-4.3c-0.1-0.8-0.2-1.4-0.5-2s-0.6-1-1-1.4
			s-0.9-0.6-1.4-0.8c-0.5-0.2-1.1-0.3-1.7-0.3c-0.6,0-1.1,0.1-1.6,0.2s-1,0.3-1.4,0.5s-0.8,0.6-1,0.9c-0.3,0.4-0.4,0.9-0.4,1.4
			c0,0.7,0.2,1.2,0.6,1.6c0.4,0.4,0.9,0.8,1.6,1.2c0.7,0.3,1.4,0.6,2.3,0.9c0.8,0.3,1.7,0.5,2.6,0.8c0.9,0.3,1.7,0.6,2.6,1
			c0.8,0.3,1.6,0.8,2.3,1.3s1.2,1.1,1.6,1.8c0.4,0.7,0.6,1.6,0.6,2.6c0,1.2-0.2,2.3-0.7,3.2c-0.5,0.9-1.1,1.7-1.9,2.2
			c-0.8,0.6-1.8,1-2.9,1.4c-1.1,0.3-2.4,0.5-3.7,0.5c-1.2,0-2.4-0.2-3.5-0.6s-2.2-1-3.1-1.8c-0.9-0.8-1.6-1.7-2.2-2.8
			c-0.6-1.1-0.9-2.3-0.9-3.7h4.2L158,85.1L158,85.1z"/>
		<polygon id="XMLID_189_" class="st0" points="196.4,69.8 196.4,73.1 188.6,73.1 188.6,93.3 184.4,93.3 184.4,73.1 176.6,73.1 
			176.6,69.8 		"/>
		<path id="XMLID_186_" class="st0" d="M210.6,69.8l9,23.6h-4.4l-2.6-6.9h-8.9c-0.4,1.1-0.9,2.3-1.3,3.4c-0.5,1.2-0.9,2.3-1.3,3.5
			h-4.3l9-23.6H210.6z M208.2,74.7l-3.1,8.4h6.3L208.2,74.7z"/>
		<polygon id="XMLID_185_" class="st0" points="229.3,69.8 229.3,89.9 241.2,89.9 241.2,93.3 225.2,93.3 225.2,69.8 		"/>
		<polygon id="XMLID_184_" class="st0" points="250.6,69.8 250.6,89.9 262.5,89.9 262.5,93.3 246.5,93.3 246.5,69.8 		"/>
		<rect id="XMLID_183_" x="267.8" y="69.8" class="st0" width="4.2" height="23.6"/>
		<polygon id="XMLID_182_" class="st0" points="283.8,69.8 294.3,87.7 294.3,69.8 298.5,69.8 298.5,93.3 293.8,93.3 283.2,75.2 
			283.2,93.3 279,93.3 279,69.8 		"/>
	</g>
	<g id="XMLID_143_">
		<path id="XMLID_171_" class="st0" d="M108.2,59.1h-3.4v-2h-8v2h-3.6V40.9h15V59.1z M104.8,47.4v-3.3h-8v3.3H104.8z M104.8,53.8
			v-3.4h-8v3.4H104.8z M122.5,38.1h-25V23.3h25V38.1z M118.9,29.1v-2.6h-17.7v2.6H118.9z M118.9,34.9v-2.7h-17.7v2.7H118.9z
			 M126.9,59.1h-3.5v-2h-8v2h-3.5V40.9h15V59.1z M123.4,47.4v-3.3h-8v3.3H123.4z M123.4,53.8v-3.4h-8v3.4H123.4z"/>
		<path id="XMLID_162_" class="st0" d="M153.8,49.7c-0.3,3.4-0.9,6.6-1.9,9.6l-3.1-1.4c1-2.5,1.6-5.5,1.9-9L153.8,49.7z M163.6,29.4
			c-2.8,6.1-5.8,10.9-9,14.4c1.7-0.3,3.3-0.6,4.6-1.1l-0.7-2l2.9-1.1c0.8,1.7,1.4,4.1,2.1,6.9l-3,1.1c-0.1-0.4-0.2-1-0.5-1.8
			c-3,0.9-6.4,1.6-10.1,2.1l-0.9-3.2c1.8-0.5,4.3-3.4,7.4-8.8c-2.7,0.5-4.9,0.9-6.4,1.1l-0.6-3.1c2.2-2,4.3-5.9,6.2-11.6l3.1,1.4
			c-1.6,3.9-3.2,7-5,9.4c2.4-0.5,3.9-0.8,4.6-1c0.8-1.5,1.5-2.9,2.1-4.3L163.6,29.4z M158.7,57.5l-3.1,0.7c0-2.9-0.3-5.7-0.9-8.2
			l2.9-0.7C158.4,52.2,158.7,54.9,158.7,57.5z M163.4,53.8l-2.8,1.1c-0.3-2-0.8-3.8-1.4-5.5l2.9-0.9C162.6,50.2,163,51.9,163.4,53.8
			z M185,54.9l-0.9,3.7c-1.2,0-2.4,0.1-3.6,0.1c-2.9,0-5-0.1-6.3-0.3c-1.3-0.2-2.5-0.6-3.8-1.2c-1.2-0.6-2.3-1.5-3.1-2.6
			c-1,2-2,3.5-3.1,4.6l-2.8-2c2.8-3.1,4.2-7,4.3-11.8l3.3,0.5c0.1,1.4-0.2,3-0.7,4.9c0.8,1.3,2.1,2.5,4,3.5V43.9h-8.9v-3.4h20.9v3.4
			h-8.5v3.6h7.3v3.2h-7.3v4.4c1,0.1,2,0.1,3.1,0.1C180.8,55.2,182.7,55.1,185,54.9z M182.3,38h-16.9V23.3h16.9V38z M178.7,29.1v-2.6
			h-9.9V29h9.9V29.1z M178.7,34.8v-2.6h-9.9v2.6H178.7z"/>
		<path id="XMLID_150_" class="st0" d="M224.3,25.2h-8c-0.1,0.5-0.3,1-0.6,1.5h7.6v2.1h-3.8c0,0.4,0,0.9-0.1,1.8h4.4v2.1h-4.1
			c2.2,1.1,3.5,1.8,4,2.1l-1.5,2.2h1.5v2.5h-13.3c-2.2,0-3.3-1.3-3.3-3.8V25.2h-1.2V23h18.5L224.3,25.2L224.3,25.2z M241.4,43.3
			h-12.2v1.8h9.4v14H235v-1h-22.8v1h-3.5v-14h9.7c0.2-0.6,0.2-1.2,0.2-1.8h-12.7v-2.4h35.5V43.3L241.4,43.3z M216.4,28.7h-2.1
			c-0.6,0.7-1.1,1.2-1.3,1.3l-2.2-1.6c1.2-1.3,2.1-2.3,2.4-3.2h-2.8v10.7c0,0.6,0.3,1,1,1h1l-1.5-2.4c1.5-0.3,2.8-1,3.9-2h-3.5v-2
			h4.8C216.4,29.8,216.5,29.2,216.4,28.7z M235,55.6v-4.8h-6.4c-1.8,0-2.7-0.8-2.7-2.4v-1h-4.7c-0.9,1.7-2.1,2.9-3.6,3.6
			s-2.7,1.1-3.5,1.1l-1.5-2.8c1.7-0.1,3.3-0.7,4.7-1.8h-5v8.3H235V55.6z M221.7,36.9c-1.1-0.8-2.5-1.6-4.2-2.5c-0.9,1-2.2,1.9-4,2.5
			H221.7z M232.2,54.2h-16.9v-2.1h16.9V54.2z M225.9,45.1v-1.8H222c0,0.5-0.1,1.1-0.2,1.8H225.9z M241.1,28.8h-4.3
			c-0.8,0-1.4-0.1-1.8-0.4c-0.3-0.3-0.5-0.8-0.5-1.6v-1.5h-4.6c-0.3,2-1.3,3.6-3.1,4.6l-2.6-2c2-0.9,2.9-2.5,2.8-4.9h10.6v3.1
			c0,0.3,0.2,0.4,0.5,0.4h3V28.8L241.1,28.8z M241.3,37.6l-2,2.4c-2.3-1.3-4.2-2.3-5.8-2.9c-2.2,1.2-4.8,2.1-7.7,2.7l-1.4-2.8
			c2.1-0.3,3.9-0.8,5.3-1.4c-2.1-0.7-3.4-1.1-4-1.3l1.6-1.8H225v-2.4h14.2v2.4c-0.7,0.8-1.6,1.7-2.8,2.6
			C238.2,36,239.8,36.8,241.3,37.6z M235,48.8v-1.4h-5.8v0.7c0,0.5,0.3,0.8,0.8,0.8L235,48.8L235,48.8z M235.4,32.6h-5.7l3.8,1.3
			C234.2,33.5,234.8,33.1,235.4,32.6z"/>
		<path id="XMLID_144_" class="st0" d="M297.3,48.8h-16c-2.4,5.6-8,9.2-17,10.7l-1.8-3.6c7.9-1.4,12.8-3.8,14.7-7.1h-13.7v-3.1h14.7
			c0.2-0.9,0.3-1.8,0.3-2.8h3.7c0,1.1-0.1,2-0.2,2.8h15.3V48.8z M298.1,41.7h-35.4v-3h15.8V36h-12.4v-3h12.4v-2.5h-14.2v-3h32v3
			h-14.1v2.6h12.4v3h-12.4v2.7h15.9L298.1,41.7L298.1,41.7z M276.9,26l-3.8,1c-0.9-1.3-1.9-2.5-3-3.6l3.6-1.2
			C274.9,23.4,276,24.7,276.9,26z M298.5,56.6l-2.3,2.9c-4.3-2.6-9.4-4.7-15.2-6.4l2.2-3.1C289.7,52,294.8,54.2,298.5,56.6z
			 M291.1,23.1c-0.8,1.2-1.7,2.5-2.8,3.9l-4-1c1.3-1.4,2.3-2.6,3-3.7L291.1,23.1z"/>
	</g>
</g>
<g>
	<g id="XMLID_23_">
		<g>
			<path id="XMLID_356_" class="st0" d="M5.9,71.9c-0.7,0-1.3-0.1-1.8-0.3c-0.5-0.2-1-0.5-1.4-0.9S2,69.8,1.8,69.2s-0.3-1.3-0.3-2
				c0-0.6,0.1-1.2,0.3-1.7s0.5-1,0.8-1.5C3,63.6,3.4,63.2,4,63c0.5-0.3,1.1-0.4,1.8-0.4c0.6,0,1.1,0.1,1.5,0.2
				c0.5,0.2,0.9,0.4,1.2,0.7s0.6,0.6,0.9,1c0.2,0.4,0.4,0.8,0.6,1.3V66H8.3v-0.1c-0.2-0.6-0.5-1-0.9-1.3C6.9,64.2,6.5,64,5.9,64
				c-0.4,0-0.7,0.1-1,0.2c-0.3,0.2-0.6,0.4-0.8,0.7c-0.2,0.3-0.4,0.6-0.5,1s-0.2,0.8-0.2,1.2c0,0.6,0.1,1.1,0.2,1.5
				c0.1,0.4,0.3,0.8,0.6,1c0.2,0.3,0.5,0.5,0.8,0.6s0.6,0.2,0.9,0.2s0.6-0.1,0.9-0.2s0.5-0.3,0.7-0.5S7.9,69.3,8,69
				c0.1-0.3,0.2-0.5,0.3-0.8v-0.1h1.8v0.1c-0.1,0.5-0.3,1-0.5,1.4s-0.5,0.8-0.9,1.1c-0.3,0.3-0.8,0.6-1.2,0.8
				C7,71.9,6.5,71.9,5.9,71.9z"/>
			<path id="XMLID_354_" class="st0" d="M3.2,67.1c0,0.6,0.1,1.1,0.2,1.5C3.6,69,3.8,69.4,4,69.7c0.3,0.3,0.5,0.5,0.9,0.6
				c0.3,0.1,0.6,0.2,1,0.2c0.3,0,0.6-0.1,0.9-0.2s0.5-0.3,0.7-0.5s0.4-0.5,0.5-0.7c0.1-0.3,0.2-0.6,0.3-0.8h1.6
				c-0.1,0.5-0.3,1-0.5,1.4s-0.5,0.8-0.8,1.1c-0.3,0.3-0.7,0.6-1.2,0.7c-0.4,0.2-0.9,0.3-1.5,0.3s-1.2-0.1-1.7-0.3
				c-0.5-0.2-1-0.5-1.3-0.9c-0.4-0.4-0.6-0.9-0.8-1.5c-0.2-0.6-0.3-1.2-0.3-2c0-0.6,0.1-1.1,0.3-1.7c0.2-0.5,0.5-1,0.8-1.4
				c0.4-0.4,0.8-0.7,1.3-1c0.5-0.2,1.1-0.4,1.8-0.4c0.6,0,1.1,0.1,1.5,0.2c0.4,0.2,0.8,0.4,1.2,0.6c0.3,0.3,0.6,0.6,0.8,1
				c0.2,0.4,0.4,0.8,0.5,1.2H8.4c-0.2-0.6-0.5-1.1-0.9-1.4s-1-0.3-1.6-0.3c-0.4,0-0.7,0.1-1.1,0.3c-0.3,0.2-0.6,0.4-0.8,0.7
				c-0.2,0.3-0.4,0.6-0.5,1C3.3,66.3,3.2,66.7,3.2,67.1z"/>
			<path id="XMLID_351_" class="st0" d="M17.2,71.7L17.2,71.7c-0.1-0.2-0.2-0.3-0.2-0.4s-0.1-0.2-0.1-0.3c0-0.1,0-0.2,0-0.3
				c0-0.1,0-0.2,0-0.3v-1.3c0-0.1,0-0.2-0.1-0.3c0-0.1-0.1-0.2-0.2-0.3c-0.1-0.1-0.2-0.2-0.4-0.2c-0.1-0.1-0.3-0.1-0.6-0.1h-2.2v3.6
				h-1.8v-8.9h4c0.5,0,0.9,0.1,1.3,0.2c0.4,0.2,0.7,0.4,1,0.6c0.3,0.3,0.5,0.5,0.6,0.9c0.1,0.3,0.2,0.6,0.2,1s-0.1,0.8-0.3,1.1
				c-0.2,0.3-0.4,0.6-0.8,0.8c0.1,0.1,0.2,0.1,0.3,0.2c0.2,0.1,0.3,0.3,0.4,0.4c0.1,0.2,0.2,0.3,0.2,0.5s0.1,0.4,0.1,0.6v1.3
				c0,0.1,0,0.3,0.1,0.5s0.2,0.4,0.3,0.6l0.1,0.2L17.2,71.7L17.2,71.7z M15.7,66.7c0.2,0,0.3,0,0.5-0.1c0.2-0.1,0.3-0.1,0.4-0.2
				s0.2-0.2,0.3-0.4c0.1-0.1,0.1-0.3,0.1-0.5s0-0.3-0.1-0.5c-0.1-0.1-0.2-0.3-0.3-0.4c-0.1-0.1-0.2-0.2-0.4-0.3
				c-0.2-0.1-0.3-0.1-0.5-0.1h-2.2v2.4L15.7,66.7L15.7,66.7z"/>
			<path id="XMLID_348_" class="st0" d="M18.6,65.5c0,0.4-0.1,0.7-0.3,1.1c-0.2,0.3-0.5,0.6-0.9,0.9c0.2,0.1,0.4,0.2,0.5,0.3
				c0.1,0.1,0.3,0.3,0.4,0.4c0.1,0.2,0.2,0.3,0.2,0.5s0.1,0.4,0.1,0.5v1.3c0,0.2,0,0.3,0.1,0.6c0.1,0.2,0.2,0.4,0.3,0.7h-1.7
				c-0.1-0.1-0.1-0.2-0.2-0.3c0-0.1-0.1-0.2-0.1-0.3c0-0.1,0-0.2,0-0.3c0-0.1,0-0.2,0-0.2v-1.3c0-0.1,0-0.3-0.1-0.4
				c0-0.1-0.1-0.2-0.2-0.3c-0.1-0.1-0.2-0.2-0.4-0.2c-0.2-0.1-0.4-0.1-0.6-0.1h-2.3V72h-1.5v-9.1h3.8c0.5,0,0.9,0.1,1.2,0.2
				c0.4,0.1,0.7,0.3,0.9,0.6c0.2,0.2,0.4,0.5,0.6,0.8C18.5,64.9,18.6,65.2,18.6,65.5z M13.3,66.8h2.3c0.2,0,0.4,0,0.5-0.1
				c0.2-0.1,0.3-0.2,0.4-0.3c0.1-0.1,0.2-0.3,0.3-0.4c0.1-0.2,0.1-0.3,0.1-0.5s0-0.4-0.1-0.5c-0.1-0.2-0.2-0.3-0.3-0.4
				c-0.1-0.1-0.3-0.2-0.4-0.3c-0.2-0.1-0.4-0.1-0.6-0.1h-2.3L13.3,66.8L13.3,66.8z"/>
			<rect id="XMLID_347_" x="21" y="62.8" class="st0" width="1.8" height="8.9"/>
			<path id="XMLID_345_" class="st0" d="M22.6,62.9v8.7h-1.5v-8.7H22.6z"/>
			<path id="XMLID_344_" class="st0" d="M28.2,71.9c-0.5,0-0.9-0.1-1.3-0.2c-0.4-0.2-0.8-0.4-1.2-0.7c-0.3-0.3-0.6-0.6-0.8-1.1
				c-0.2-0.4-0.3-0.9-0.3-1.4v-0.1h1.8v0.1c0,0.3,0.1,0.5,0.2,0.8c0.1,0.2,0.2,0.4,0.4,0.6c0.2,0.2,0.4,0.3,0.6,0.4s0.5,0.1,0.7,0.1
				s0.5,0,0.7-0.1c0.2,0,0.4-0.1,0.6-0.2s0.3-0.2,0.4-0.4c0.1-0.2,0.1-0.4,0.1-0.6s-0.1-0.4-0.2-0.5s-0.3-0.3-0.6-0.4
				c-0.2-0.1-0.5-0.2-0.8-0.3c-0.3-0.1-0.6-0.2-1-0.3c-0.3-0.1-0.6-0.2-1-0.4c-0.3-0.1-0.6-0.3-0.9-0.5S25.1,66.3,25,66
				c-0.2-0.3-0.2-0.6-0.2-1s0.1-0.8,0.2-1.1c0.2-0.3,0.4-0.6,0.7-0.8c0.3-0.2,0.6-0.4,1.1-0.5c0.4-0.1,0.8-0.2,1.3-0.2
				c0.6,0,1.2,0.1,1.6,0.3s0.8,0.4,1,0.7c0.3,0.3,0.5,0.6,0.6,1c0.1,0.3,0.2,0.7,0.2,1v0.1h-1.8v-0.1c0-0.3-0.1-0.5-0.2-0.7
				s-0.2-0.3-0.4-0.5c-0.1-0.1-0.3-0.2-0.5-0.3c-0.2-0.1-0.4-0.1-0.6-0.1s-0.4,0-0.6,0.1c-0.2,0-0.4,0.1-0.5,0.2s-0.3,0.2-0.3,0.3
				c-0.1,0.1-0.1,0.3-0.1,0.5s0.1,0.4,0.2,0.5c0.1,0.2,0.3,0.3,0.6,0.4c0.2,0.1,0.5,0.2,0.8,0.3c0.3,0.1,0.6,0.2,1,0.3
				c0.3,0.1,0.6,0.2,1,0.4c0.3,0.1,0.6,0.3,0.9,0.5s0.5,0.4,0.6,0.7c0.2,0.3,0.2,0.6,0.2,1c0,0.5-0.1,0.9-0.3,1.2
				c-0.2,0.3-0.4,0.6-0.8,0.9c-0.3,0.2-0.7,0.4-1.1,0.5C29.2,71.9,28.7,71.9,28.2,71.9z"/>
			<path id="XMLID_342_" class="st0" d="M26.2,68.6c0,0.3,0.1,0.6,0.2,0.8c0.1,0.2,0.2,0.5,0.4,0.6c0.2,0.2,0.4,0.3,0.6,0.4
				s0.5,0.1,0.8,0.1c0.2,0,0.5,0,0.7-0.1c0.2,0,0.4-0.1,0.6-0.2s0.3-0.3,0.4-0.4c0.1-0.2,0.2-0.4,0.2-0.7c0-0.2-0.1-0.4-0.2-0.6
				s-0.3-0.3-0.6-0.4c-0.2-0.1-0.5-0.2-0.8-0.3c-0.3-0.1-0.6-0.2-1-0.3c-0.3-0.1-0.6-0.2-1-0.4s-0.6-0.3-0.8-0.5
				c-0.2-0.2-0.4-0.4-0.6-0.7c-0.1-0.3-0.2-0.6-0.2-1s0.1-0.7,0.2-1c0.2-0.3,0.4-0.5,0.7-0.7c0.3-0.2,0.6-0.3,1-0.5
				c0.4-0.1,0.8-0.2,1.3-0.2c0.6,0,1.1,0.1,1.6,0.3c0.4,0.2,0.7,0.4,1,0.7s0.4,0.6,0.5,0.9s0.2,0.7,0.2,1h-1.5
				c0-0.3-0.1-0.5-0.2-0.7s-0.2-0.4-0.4-0.5c-0.2-0.1-0.3-0.2-0.5-0.3c-0.2-0.1-0.4-0.1-0.6-0.1s-0.4,0-0.6,0.1
				c-0.2,0-0.4,0.1-0.5,0.2c-0.2,0.1-0.3,0.2-0.4,0.3s-0.1,0.3-0.1,0.5s0.1,0.4,0.2,0.6s0.3,0.3,0.6,0.4c0.2,0.1,0.5,0.2,0.8,0.3
				c0.3,0.1,0.6,0.2,1,0.3c0.3,0.1,0.6,0.2,1,0.4c0.3,0.1,0.6,0.3,0.8,0.5c0.2,0.2,0.4,0.4,0.6,0.7c0.1,0.3,0.2,0.6,0.2,0.9
				c0,0.4-0.1,0.8-0.3,1.2c-0.2,0.3-0.4,0.6-0.7,0.8c-0.3,0.2-0.7,0.4-1.1,0.5s-0.9,0.2-1.4,0.2c-0.4,0-0.9-0.1-1.3-0.2
				s-0.8-0.4-1.1-0.6c-0.3-0.3-0.6-0.6-0.8-1c-0.2-0.4-0.3-0.9-0.3-1.4L26.2,68.6L26.2,68.6z"/>
			<polygon id="XMLID_341_" class="st0" points="35.8,71.7 35.8,64.3 33,64.3 33,62.8 40.5,62.8 40.5,64.3 37.6,64.3 37.6,71.7 			
				"/>
			<path id="XMLID_339_" class="st0" d="M40.4,62.9v1.2h-2.9v7.4H36v-7.4h-2.9v-1.2H40.4z"/>
			<path id="XMLID_336_" class="st0" d="M47.2,71.7l-1-2.5h-3.1c-0.1,0.4-0.3,0.8-0.5,1.2c-0.2,0.4-0.3,0.8-0.5,1.3v0.1h-1.8
				l3.4-8.9h1.9l3.4,8.9L47.2,71.7L47.2,71.7z M45.7,67.7l-1-2.6l-1,2.6H45.7z"/>
			<path id="XMLID_333_" class="st0" d="M45.6,62.9l3.3,8.7h-1.6l-1-2.5H43c-0.2,0.4-0.3,0.8-0.5,1.3c-0.2,0.4-0.3,0.9-0.5,1.3h-1.6
				l3.3-8.7h1.9V62.9z M44.7,64.8l-1.2,3.1h2.3L44.7,64.8z"/>
			<polygon id="XMLID_332_" class="st0" points="50.8,71.7 50.8,62.8 52.6,62.8 52.6,70.2 57,70.2 57,71.7 			"/>
			<path id="XMLID_330_" class="st0" d="M52.5,62.9v7.4h4.4v1.3h-6v-8.7H52.5z"/>
			<polygon id="XMLID_329_" class="st0" points="58.7,71.7 58.7,62.8 60.4,62.8 60.4,70.2 64.8,70.2 64.8,71.7 			"/>
			<path id="XMLID_327_" class="st0" d="M60.3,62.9v7.4h4.4v1.3h-5.9v-8.7H60.3z"/>
			<rect id="XMLID_326_" x="66.5" y="62.8" class="st0" width="1.8" height="8.9"/>
			<path id="XMLID_324_" class="st0" d="M68.2,62.9v8.7h-1.5v-8.7H68.2z"/>
			<polygon id="XMLID_323_" class="st0" points="76.1,71.7 72.4,65.4 72.4,71.7 70.6,71.7 70.6,62.8 72.6,62.8 76.3,69.1 76.3,62.8 
				78.1,62.8 78.1,71.7 			"/>
			<path id="XMLID_321_" class="st0" d="M72.5,62.9l3.9,6.6v-6.6h1.5v8.7h-1.7l-3.9-6.7v6.7h-1.5v-8.7H72.5z"/>
		</g>
	</g>
	<g id="XMLID_12_">
		<g id="XMLID_16_">
			<g id="XMLID_21_">
				<path class="st0" d="M41.2,32.6c-2.1-6.5-4.9-10.1-10.8-12.8c5.4-2.6,8.6-6.6,10.8-14.4C43,12.7,45.7,16.9,52,19.8
					C46.7,22.4,43.7,25.7,41.2,32.6z"/>
			</g>
			<g id="XMLID_19_">
				<path class="st0" d="M41.2,32.6c-7-3.8-10-7.3-10.8-12.8c-5.1,2.5-10.3,2.3-18.7-0.9c7.5,5.7,10.9,10.7,11.7,18.1
					C26.4,31.5,32.3,29.6,41.2,32.6z"/>
			</g>
			<g id="XMLID_17_">
				<path class="st0" d="M41.3,32.5c7-3.8,10-7.3,10.8-12.8c5.1,2.5,10.3,2.3,18.7-0.9c-7.5,5.8-10.9,10.7-11.7,18.1
					C56.1,31.5,50.2,29.6,41.3,32.5z"/>
			</g>
		</g>
		<circle id="XMLID_15_" class="st0" cx="10" cy="17.8" r="2"/>
		<circle id="XMLID_14_" class="st0" cx="41.3" cy="3.3" r="2"/>
		<circle id="XMLID_13_" class="st0" cx="72.6" cy="17.9" r="2"/>
	</g>
	<g id="XMLID_1_">
		<path id="XMLID_11_" class="st0" d="M41,42.4c10.1,0,18.9,5.3,23.8,13.3l8.7-5.6C66.7,39.4,54.7,32.2,41,32.2
			c-17.4,0-32,11.5-36.8,27.3h10.9C19.4,49.4,29.4,42.4,41,42.4z"/>
		<path id="XMLID_10_" class="st0" d="M67.4,79.8C63.5,90.6,53.2,98.4,41,98.4c-13.9,0-25.4-10.1-27.6-23.3H3
			c2.3,18.9,18.5,33.6,38.1,33.6c16.9,0,31.3-10.9,36.4-26.1L67.4,79.8z"/>
	</g>
	<g>
		<path class="st0" d="M33,88.6h-1h-3.2h-1v-6.3H33V88.6z M32,84.8v-1.5h-3.2v1.5H32z M32,87.1v-1.5h-3.2v1.5H32z M39.4,76.3v5H27.8
			v-5H39.4z M38.2,78.3v-1.1h-9.1v1.1H38.2z M38.2,79.2h-9.1v1.1h9.1V79.2z M39.5,88.6h-1h-3.2h-1v-6.3h5.2V88.6z M38.5,84.7v-1.5
			h-3.2v1.5H38.5z M38.5,87.1v-1.5h-3.2v1.5H38.5z"/>
		<path class="st0" d="M44.1,85.2c-0.1,1.2-0.2,2.3-0.5,3.2l-0.9-0.3c0.3-0.9,0.4-1.9,0.5-3.1L44.1,85.2z M47.5,84l-0.8,0.2
			c-0.1-0.2-0.1-0.4-0.2-0.6c-1.2,0.4-2.4,0.6-3.5,0.8l-0.3-0.9c0.2-0.1,0.3-0.2,0.5-0.3c0.5-0.5,1.1-1.4,1.8-2.6
			c-0.7,0.1-1.4,0.2-2.1,0.4l-0.2-0.9c0.1-0.1,0.3-0.2,0.4-0.4c0.7-1.1,1.3-2.5,1.8-4l0.9,0.4c-0.7,1.6-1.3,2.9-2,3.9
			c0.6-0.1,1.2-0.2,1.7-0.3c0.3-0.5,0.6-1.1,0.9-1.7l0.9,0.3c-1.3,2.4-2.4,4-3.2,5c0.7-0.1,1.5-0.3,2.2-0.5
			c-0.1-0.4-0.3-0.8-0.4-1.2l0.8-0.3C47.1,82.1,47.3,83,47.5,84z M46,87.8L45.1,88c-0.1-1.1-0.2-2.1-0.4-2.9l0.8-0.2
			C45.7,85.8,45.9,86.7,46,87.8z M47.8,86.7L47,87.1c-0.2-0.9-0.4-1.6-0.7-2.3l0.8-0.3C47.3,85.2,47.6,85.9,47.8,86.7z M55.2,82.1
			V83H52v1.6h2.8v0.9H52v1.9c0.5,0.1,1.1,0.1,1.7,0.1c0.7,0,1.2,0,1.7-0.1l-0.3,1c-0.5,0-1,0-1.4,0c-1.7,0-2.9-0.2-3.5-0.5
			c-0.5-0.3-0.9-0.8-1.3-1.5c-0.3,0.8-0.7,1.5-1.3,2.2L46.9,88c1-1.3,1.6-2.7,1.7-4.4l0.9,0.1c0,0.6-0.1,1.1-0.2,1.6
			c0.4,0.9,0.9,1.5,1.4,1.7c0.1,0,0.2,0.1,0.3,0.1v-4.2h-3.2V82h7.4V82.1z M54.4,76.3v4.9h-5.8v-4.9H54.4z M53.4,78.3v-1.2h-3.9v1.2
			H53.4z M53.4,79.1h-3.9v1.2h3.9V79.1z"/>
	</g>
</g>
</svg>
