<?xml version="1.0" encoding="utf-8"?>
<!-- Generator: Adobe Illustrator 24.1.0, SVG Export Plug-In . SVG Version: 6.00 Build 0)  -->
<svg version="1.1" id="Capa_1" xmlns="http://www.w3.org/2000/svg" xmlns:xlink="http://www.w3.org/1999/xlink" x="0px" y="0px"
	 viewBox="0 0 512 512" style="enable-background:new 0 0 512 512;" xml:space="preserve">
<style type="text/css">
	.st0{fill:#4CAF50;}
	.st1{fill:#FFFFFF;}
</style>
<circle class="st0" cx="254.4" cy="256.6" r="256"/>
<path class="st1" d="M-305,261.9c-27.6,0-54-6-78.2-17.9c-3.8-1.8-8.2-2.1-12.3-0.7c-4,1.4-7.3,4.4-9.2,8.2l-11.5,23.8
	c-34.6-19.8-63.2-48.5-83.1-83.1l23.9-11.5c3.8-1.9,6.8-5.2,8.2-9.2c1.4-4,1.1-8.4-0.7-12.3c-11.9-24.3-17.9-50.6-17.9-78.2
	c0-8.8-7.2-16-16-16H-561c-8.8,0-16,7.2-16,16c0,150,122,272,272,272c8.8,0,16-7.2,16-16v-59.1C-289,269.1-296.2,261.9-305,261.9z"
	/>
<path class="st1" d="M254.4,71.3C147.8,71.3,61,142.1,61,229.2c0,78,68.8,143.4,161.7,155.8c6.3,1.3,14.9,4.2,17,9.6
	c1.9,4.9,1.3,12.4,0.6,17.5l-2.6,16.5c-0.7,4.9-3.9,19.2,16.9,10.5c20.8-8.7,111.4-66.1,152-113.1c27.8-30.6,41.1-62,41.1-96.8
	C447.7,142.1,361,71.3,254.4,71.3L254.4,71.3z M178.7,281h-38.4c-5.6,0-10.2-4.6-10.2-10.2v-77.4c0-5.6,4.6-10.2,10.2-10.2
	c5.6,0,10.2,4.6,10.2,10.2v67.1h28.3c5.6,0,10.1,4.6,10.1,10.2C188.8,276.4,184.3,281,178.7,281z M218.4,270.8
	c0,5.6-4.5,10.2-10.2,10.2c-5.6,0-10.1-4.6-10.1-10.2v-77.4c0-5.6,4.5-10.2,10.2-10.2c5.6,0,10.1,4.6,10.1,10.2L218.4,270.8z
	 M310.9,270.8c0,4.4-2.8,8.3-7,9.7c-1,0.3-2.1,0.5-3.2,0.5c-3.4,0-6.3-1.5-8.2-4.1l-39.4-53.8v47.7c0,5.6-4.5,10.2-10.2,10.2
	c-5.6,0-10.1-4.6-10.1-10.2v-77.3c0-4.4,2.8-8.3,6.9-9.7c1-0.4,2.2-0.5,3.1-0.5c3.1,0,6,1.7,8,4.1l39.7,54v-47.9
	c0-5.6,4.5-10.2,10.2-10.2c5.6,0,10.2,4.6,10.2,10.2V270.8z M373.1,221.9c5.6,0,10.2,4.6,10.2,10.2c0,5.6-4.5,10.2-10.2,10.2h-28.3
	v18.2h28.3c5.6,0,10.2,4.6,10.2,10.2c0,5.6-4.5,10.2-10.2,10.2h-38.4c-5.6,0-10.1-4.6-10.1-10.2v-77.4c0-5.6,4.5-10.2,10.2-10.2
	h38.4c5.6,0,10.1,4.6,10.1,10.2c0,5.7-4.5,10.2-10.2,10.2h-28.3v18.2H373.1z"/>
</svg>
