<?xml version="1.0" encoding="utf-8"?>
<!-- Generator: Adobe Illustrator 24.1.0, SVG Export Plug-In . SVG Version: 6.00 Build 0)  -->
<svg version="1.1" id="圖層_1" xmlns="http://www.w3.org/2000/svg" xmlns:xlink="http://www.w3.org/1999/xlink" x="0px" y="0px"
	 viewBox="0 0 130.5 37.6" style="enable-background:new 0 0 130.5 37.6;" xml:space="preserve">
<style type="text/css">
	.st0{fill:#41ADEC;}
</style>
<g id="XMLID_143_">
	<path id="XMLID_171_" class="st0" d="M40.5,27.3h-1.6v-0.9h-3.7v0.9h-1.7v-8.5h7V27.3z M38.9,21.8v-1.5h-3.7v1.5H38.9z M38.9,24.8
		v-1.6h-3.7v1.6H38.9z M47.2,17.5H35.5v-6.9h11.7V17.5z M45.5,13.3v-1.2h-8.3v1.2H45.5z M45.5,16v-1.3h-8.3V16H45.5z M49.3,27.3
		h-1.6v-0.9H44v0.9h-1.6v-8.5h7v8.5H49.3z M47.7,21.8v-1.5H44v1.5H47.7z M47.7,24.8v-1.6H44v1.6H47.7z"/>
	<path id="XMLID_162_" class="st0" d="M61.9,22.9c-0.1,1.6-0.4,3.1-0.9,4.5l-1.5-0.7c0.5-1.2,0.7-2.6,0.9-4.2L61.9,22.9z M66.5,13.4
		c-1.3,2.9-2.7,5.1-4.2,6.7c0.8-0.1,1.5-0.3,2.2-0.5l-0.3-0.9l1.4-0.5c0.4,0.8,0.7,1.9,1,3.2L65,21.9c0-0.2-0.1-0.5-0.2-0.8
		c-1.4,0.4-3,0.7-4.7,1l-0.4-1.5c0.8-0.2,2-1.6,3.5-4.1c-1.3,0.2-2.3,0.4-3,0.5l-0.3-1.5c1-0.9,2-2.8,2.9-5.4l1.5,0.7
		c-0.7,1.8-1.5,3.3-2.3,4.4c1.1-0.2,1.8-0.4,2.2-0.5c0.4-0.7,0.7-1.4,1-2L66.5,13.4z M64.2,26.6l-1.5,0.3c0-1.4-0.1-2.7-0.4-3.8
		l1.4-0.3C64.1,24.1,64.2,25.4,64.2,26.6z M66.4,24.8l-1.3,0.5c-0.1-0.9-0.4-1.8-0.7-2.6l1.4-0.4C66,23.2,66.2,23.9,66.4,24.8z
		 M76.5,25.4l-0.4,1.7c-0.6,0-1.1,0-1.7,0c-1.4,0-2.3,0-3-0.1c-0.6-0.1-1.2-0.3-1.8-0.6c-0.6-0.3-1.1-0.7-1.5-1.2
		c-0.5,0.9-0.9,1.6-1.5,2.2l-1.3-0.9c1.3-1.5,2-3.3,2-5.5l1.5,0.2c0,0.7-0.1,1.4-0.3,2.3c0.4,0.6,1,1.2,1.9,1.6v-4.9h-4.2v-1.6H76
		v1.6h-4v1.7h3.4v1.5H72v2.1c0.5,0,0.9,0,1.5,0C74.5,25.5,75.4,25.4,76.5,25.4z M75.3,17.4h-7.9v-6.9h7.9V17.4z M73.6,13.3v-1.2H69
		v1.2H73.6L73.6,13.3z M73.6,15.9v-1.2H69v1.2H73.6z"/>
	<path id="XMLID_150_" class="st0" d="M94.9,11.4h-3.7c0,0.2-0.1,0.5-0.3,0.7h3.6v1h-1.8c0,0.2,0,0.4,0,0.8h2.1v1h-1.9
		c1,0.5,1.6,0.8,1.9,1l-0.7,1h0.7v1.2h-6.2c-1,0-1.5-0.6-1.5-1.8v-4.9h-0.6v-1H95L94.9,11.4L94.9,11.4z M102.9,19.9h-5.7v0.8h4.4
		v6.6h-1.7v-0.4H89.3v0.5h-1.6v-6.6h4.5c0.1-0.3,0.1-0.6,0.1-0.8h-6v-1.1h16.6V19.9L102.9,19.9z M91.2,13.1h-1
		c-0.3,0.3-0.5,0.6-0.6,0.6l-1-0.7c0.6-0.6,1-1.1,1.1-1.5h-1.3v5c0,0.3,0.1,0.5,0.5,0.5h0.5l-0.7-1.1c0.7-0.1,1.3-0.5,1.8-0.9h-1.6
		v-1.1h2.2C91.2,13.6,91.3,13.3,91.2,13.1z M99.9,25.7v-2.2h-3c-0.8,0-1.3-0.4-1.3-1.1v-0.5h-2.2c-0.4,0.8-1,1.4-1.7,1.7
		s-1.3,0.5-1.6,0.5l-0.7-1.3c0.8,0,1.5-0.3,2.2-0.8h-2.3v3.9L99.9,25.7L99.9,25.7z M93.7,16.9c-0.5-0.4-1.2-0.7-2-1.2
		c-0.4,0.5-1,0.9-1.9,1.2H93.7z M98.6,25h-7.9v-1h7.9V25z M95.7,20.8v-0.9h-1.8c0,0.2,0,0.5-0.1,0.8h1.9V20.8z M102.8,13.1h-2
		c-0.4,0-0.7,0-0.8-0.2c-0.1-0.1-0.2-0.4-0.2-0.7v-0.7h-2.2c-0.1,0.9-0.6,1.7-1.5,2.2l-1.2-0.9c0.9-0.4,1.4-1.2,1.3-2.3h5v1.4
		c0,0.1,0.1,0.2,0.2,0.2h1.4L102.8,13.1L102.8,13.1z M102.9,17.2l-0.9,1.1c-1.1-0.6-2-1.1-2.7-1.4c-1,0.6-2.2,1-3.6,1.3L95,17
		c1-0.1,1.8-0.4,2.5-0.7c-1-0.3-1.6-0.5-1.9-0.6l0.7-0.8h-1.1v-1.1h6.7v1.1c-0.3,0.4-0.7,0.8-1.3,1.2
		C101.4,16.5,102.2,16.9,102.9,17.2z M99.9,22.5v-0.7h-2.7v0.3c0,0.2,0.1,0.4,0.4,0.4L99.9,22.5L99.9,22.5z M100.1,14.9h-2.7
		l1.8,0.6C99.6,15.3,99.8,15.1,100.1,14.9z"/>
	<path id="XMLID_144_" class="st0" d="M129.1,22.5h-7.5c-1.1,2.6-3.7,4.3-8,5l-0.8-1.7c3.7-0.7,6-1.8,6.9-3.3h-6.4V21h6.9
		c0.1-0.4,0.1-0.8,0.1-1.3h1.7c0,0.5,0,0.9-0.1,1.3h7.2V22.5z M129.5,19.2h-16.6v-1.4h7.4v-1.3h-5.8v-1.4h5.8v-1.2h-6.7v-1.4h15v1.4
		H122v1.2h5.8v1.4H122v1.3h7.4L129.5,19.2L129.5,19.2z M119.6,11.8l-1.8,0.5c-0.4-0.6-0.9-1.2-1.4-1.7l1.7-0.6
		C118.6,10.6,119.2,11.2,119.6,11.8z M129.7,26.1l-1.1,1.4c-2-1.2-4.4-2.2-7.1-3l1-1.5C125.6,24,128,25,129.7,26.1z M126.2,10.5
		c-0.4,0.6-0.8,1.2-1.3,1.8l-1.9-0.5c0.6-0.7,1.1-1.2,1.4-1.7L126.2,10.5z"/>
</g>
<g>
	<g id="XMLID_93_">
		<g>
			<path id="XMLID_377_" class="st0" d="M2.3,24.5c-0.2,0-0.4,0-0.6-0.1c-0.2-0.1-0.3-0.2-0.5-0.3c-0.1-0.1-0.2-0.3-0.3-0.5
				c-0.1-0.2-0.1-0.4-0.1-0.7c0-0.2,0-0.4,0.1-0.6C1,22.1,1.1,22,1.2,21.8c0.1-0.1,0.3-0.3,0.5-0.3c0.2-0.1,0.4-0.1,0.6-0.1
				c0.2,0,0.4,0,0.5,0.1c0.2,0.1,0.3,0.1,0.4,0.2c0.1,0.1,0.2,0.2,0.3,0.3c0.1,0.1,0.1,0.3,0.2,0.4l0,0.1H3.1l0,0
				C3,22.2,2.9,22.1,2.8,22c-0.1-0.1-0.3-0.1-0.5-0.1c-0.1,0-0.2,0-0.3,0.1c-0.1,0.1-0.2,0.1-0.3,0.2c-0.1,0.1-0.1,0.2-0.2,0.3
				c0,0.1-0.1,0.3-0.1,0.4c0,0.2,0,0.4,0.1,0.5c0,0.1,0.1,0.3,0.2,0.4C1.8,23.8,1.9,23.9,2,24C2.1,24,2.2,24,2.3,24
				c0.1,0,0.2,0,0.3-0.1c0.1,0,0.2-0.1,0.2-0.2c0.1-0.1,0.1-0.2,0.2-0.2c0-0.1,0.1-0.2,0.1-0.3l0,0h0.6l0,0c0,0.2-0.1,0.3-0.2,0.5
				c-0.1,0.1-0.2,0.3-0.3,0.4c-0.1,0.1-0.3,0.2-0.4,0.3C2.6,24.5,2.5,24.5,2.3,24.5z"/>
			<path id="XMLID_375_" class="st0" d="M1.4,22.9c0,0.2,0,0.4,0.1,0.5c0.1,0.1,0.1,0.3,0.2,0.4c0.1,0.1,0.2,0.2,0.3,0.2
				c0.1,0,0.2,0.1,0.3,0.1c0.1,0,0.2,0,0.3-0.1c0.1,0,0.2-0.1,0.2-0.2C2.9,23.7,3,23.7,3,23.6c0-0.1,0.1-0.2,0.1-0.3h0.5
				c0,0.2-0.1,0.3-0.2,0.5c-0.1,0.1-0.2,0.3-0.3,0.4c-0.1,0.1-0.2,0.2-0.4,0.3c-0.2,0.1-0.3,0.1-0.5,0.1c-0.2,0-0.4,0-0.6-0.1
				s-0.3-0.2-0.4-0.3C1.1,23.9,1,23.8,1,23.6c-0.1-0.2-0.1-0.4-0.1-0.7c0-0.2,0-0.4,0.1-0.6C1,22.1,1.1,22,1.2,21.8
				c0.1-0.1,0.3-0.2,0.4-0.3c0.2-0.1,0.4-0.1,0.6-0.1c0.2,0,0.4,0,0.5,0.1c0.1,0.1,0.3,0.1,0.4,0.2c0.1,0.1,0.2,0.2,0.3,0.3
				c0.1,0.1,0.1,0.3,0.2,0.4H3.1C3,22.2,2.9,22.1,2.8,22c-0.1-0.1-0.3-0.2-0.5-0.2c-0.1,0-0.3,0-0.4,0.1c-0.1,0.1-0.2,0.1-0.3,0.2
				c-0.1,0.1-0.1,0.2-0.2,0.3C1.4,22.6,1.4,22.7,1.4,22.9z"/>
			<path id="XMLID_372_" class="st0" d="M6.1,24.4L6.1,24.4C6,24.4,6,24.3,6,24.3c0,0,0-0.1,0-0.1c0,0,0-0.1,0-0.1c0,0,0-0.1,0-0.1
				v-0.4c0,0,0-0.1,0-0.1c0,0,0-0.1-0.1-0.1c0,0-0.1-0.1-0.1-0.1c-0.1,0-0.1,0-0.2,0H4.8v1.2H4.2v-3h1.3c0.2,0,0.3,0,0.4,0.1
				c0.1,0.1,0.2,0.1,0.3,0.2c0.1,0.1,0.2,0.2,0.2,0.3c0,0.1,0.1,0.2,0.1,0.3c0,0.1,0,0.3-0.1,0.4c-0.1,0.1-0.2,0.2-0.3,0.3
				c0,0,0.1,0,0.1,0.1c0.1,0,0.1,0.1,0.1,0.2c0,0.1,0.1,0.1,0.1,0.2c0,0.1,0,0.1,0,0.2V24c0,0,0,0.1,0,0.2c0,0.1,0.1,0.1,0.1,0.2
				l0,0.1H6.1z M5.6,22.7c0.1,0,0.1,0,0.2,0c0.1,0,0.1,0,0.1-0.1c0,0,0.1-0.1,0.1-0.1c0,0,0-0.1,0-0.2c0-0.1,0-0.1,0-0.2
				c0-0.1-0.1-0.1-0.1-0.1c0,0-0.1-0.1-0.1-0.1c-0.1,0-0.1,0-0.2,0H4.8v0.8H5.6z"/>
			<path id="XMLID_369_" class="st0" d="M6.6,22.3c0,0.1,0,0.2-0.1,0.4c-0.1,0.1-0.2,0.2-0.3,0.3c0.1,0,0.1,0.1,0.2,0.1
				s0.1,0.1,0.1,0.1c0,0.1,0.1,0.1,0.1,0.2c0,0.1,0,0.1,0,0.2V24c0,0.1,0,0.1,0,0.2c0,0.1,0.1,0.1,0.1,0.2H6.1c0,0,0-0.1-0.1-0.1
				c0,0,0-0.1,0-0.1c0,0,0-0.1,0-0.1c0,0,0-0.1,0-0.1v-0.4c0,0,0-0.1,0-0.1c0,0,0-0.1-0.1-0.1c0,0-0.1-0.1-0.1-0.1
				c-0.1,0-0.1,0-0.2,0H4.8v1.2H4.3v-2.9h1.3c0.2,0,0.3,0,0.4,0.1c0.1,0.1,0.2,0.1,0.3,0.2c0.1,0.1,0.1,0.2,0.2,0.3
				C6.5,22.1,6.6,22.2,6.6,22.3z M4.8,22.8h0.8c0.1,0,0.1,0,0.2,0c0.1,0,0.1-0.1,0.1-0.1c0,0,0.1-0.1,0.1-0.1c0-0.1,0-0.1,0-0.2
				c0-0.1,0-0.1,0-0.2C6,22.1,5.9,22,5.9,22c0,0-0.1-0.1-0.1-0.1c-0.1,0-0.1,0-0.2,0H4.8V22.8z"/>
			<rect id="XMLID_368_" x="7.4" y="21.4" class="st0" width="0.6" height="3"/>
			<path id="XMLID_366_" class="st0" d="M7.9,21.5v2.9H7.4v-2.9H7.9z"/>
			<path id="XMLID_365_" class="st0" d="M9.8,24.5c-0.2,0-0.3,0-0.5-0.1c-0.1-0.1-0.3-0.1-0.4-0.2c-0.1-0.1-0.2-0.2-0.3-0.4
				c-0.1-0.1-0.1-0.3-0.1-0.5l0,0h0.6l0,0c0,0.1,0,0.2,0.1,0.3c0,0.1,0.1,0.1,0.1,0.2c0.1,0.1,0.1,0.1,0.2,0.1c0.1,0,0.2,0,0.2,0
				c0.1,0,0.2,0,0.2,0c0.1,0,0.1,0,0.2-0.1c0.1,0,0.1-0.1,0.1-0.1c0-0.1,0-0.1,0-0.2c0-0.1,0-0.1-0.1-0.2c0-0.1-0.1-0.1-0.2-0.1
				c-0.1,0-0.2-0.1-0.3-0.1c-0.1,0-0.2-0.1-0.3-0.1c-0.1,0-0.2-0.1-0.3-0.1c-0.1,0-0.2-0.1-0.3-0.2c-0.1-0.1-0.2-0.1-0.2-0.2
				c-0.1-0.1-0.1-0.2-0.1-0.3c0-0.1,0-0.3,0.1-0.4c0.1-0.1,0.1-0.2,0.2-0.3c0.1-0.1,0.2-0.1,0.4-0.2c0.1,0,0.3-0.1,0.4-0.1
				c0.2,0,0.4,0,0.5,0.1c0.1,0.1,0.3,0.1,0.4,0.2c0.1,0.1,0.2,0.2,0.2,0.3c0,0.1,0.1,0.2,0.1,0.3l0,0h-0.6l0,0c0-0.1,0-0.2-0.1-0.2
				c0-0.1-0.1-0.1-0.1-0.2c0,0-0.1-0.1-0.2-0.1c-0.1,0-0.1,0-0.2,0c-0.1,0-0.1,0-0.2,0c-0.1,0-0.1,0-0.2,0.1c0,0-0.1,0.1-0.1,0.1
				c0,0,0,0.1,0,0.2c0,0.1,0,0.1,0.1,0.2c0,0.1,0.1,0.1,0.2,0.1c0.1,0,0.2,0.1,0.3,0.1c0.1,0,0.2,0.1,0.3,0.1c0.1,0,0.2,0.1,0.3,0.1
				c0.1,0,0.2,0.1,0.3,0.2c0.1,0.1,0.2,0.1,0.2,0.2c0.1,0.1,0.1,0.2,0.1,0.3c0,0.2,0,0.3-0.1,0.4c-0.1,0.1-0.1,0.2-0.3,0.3
				c-0.1,0.1-0.2,0.1-0.4,0.2C10.1,24.5,10,24.5,9.8,24.5z"/>
			<path id="XMLID_363_" class="st0" d="M9.1,23.4c0,0.1,0,0.2,0.1,0.3c0,0.1,0.1,0.2,0.1,0.2C9.4,23.9,9.5,24,9.6,24
				c0.1,0,0.2,0,0.3,0c0.1,0,0.2,0,0.2,0c0.1,0,0.1,0,0.2-0.1c0.1,0,0.1-0.1,0.1-0.1c0-0.1,0.1-0.1,0.1-0.2c0-0.1,0-0.1-0.1-0.2
				c-0.1-0.1-0.1-0.1-0.2-0.1c-0.1,0-0.2-0.1-0.3-0.1c-0.1,0-0.2-0.1-0.3-0.1c-0.1,0-0.2-0.1-0.3-0.1S9.1,22.8,9,22.7
				c-0.1-0.1-0.1-0.1-0.2-0.2c-0.1-0.1-0.1-0.2-0.1-0.3c0-0.1,0-0.2,0.1-0.3c0.1-0.1,0.1-0.2,0.2-0.2c0.1-0.1,0.2-0.1,0.3-0.2
				c0.1,0,0.3-0.1,0.4-0.1c0.2,0,0.4,0,0.5,0.1c0.1,0.1,0.3,0.1,0.3,0.2c0.1,0.1,0.1,0.2,0.2,0.3c0,0.1,0.1,0.2,0.1,0.3h-0.5
				c0-0.1,0-0.2-0.1-0.2c0-0.1-0.1-0.1-0.1-0.2c-0.1,0-0.1-0.1-0.2-0.1c-0.1,0-0.1,0-0.2,0c-0.1,0-0.1,0-0.2,0c-0.1,0-0.1,0-0.2,0.1
				c-0.1,0-0.1,0.1-0.1,0.1s0,0.1,0,0.2c0,0.1,0,0.1,0.1,0.2c0.1,0.1,0.1,0.1,0.2,0.1c0.1,0,0.2,0.1,0.3,0.1c0.1,0,0.2,0.1,0.3,0.1
				c0.1,0,0.2,0.1,0.3,0.1c0.1,0,0.2,0.1,0.3,0.2c0.1,0.1,0.1,0.1,0.2,0.2c0.1,0.1,0.1,0.2,0.1,0.3c0,0.2,0,0.3-0.1,0.4
				c-0.1,0.1-0.1,0.2-0.2,0.3c-0.1,0.1-0.2,0.1-0.4,0.2c-0.1,0-0.3,0.1-0.5,0.1c-0.2,0-0.3,0-0.4-0.1c-0.1-0.1-0.3-0.1-0.4-0.2
				c-0.1-0.1-0.2-0.2-0.3-0.3c-0.1-0.1-0.1-0.3-0.1-0.5H9.1z"/>
			<polygon id="XMLID_362_" class="st0" points="12.4,24.4 12.4,21.9 11.4,21.9 11.4,21.4 14,21.4 14,21.9 13,21.9 13,24.4 			"/>
			<path id="XMLID_360_" class="st0" d="M13.9,21.5v0.4h-1v2.5h-0.5v-2.5h-1v-0.4H13.9z"/>
			<path id="XMLID_357_" class="st0" d="M16.2,24.4l-0.3-0.9h-1c0,0.1-0.1,0.3-0.2,0.4c-0.1,0.1-0.1,0.3-0.2,0.4l0,0h-0.6l1.2-3h0.7
				l1.2,3H16.2z M15.7,23.1l-0.3-0.9L15,23.1H15.7z"/>
			<path id="XMLID_354_" class="st0" d="M15.7,21.5l1.1,2.9h-0.5l-0.3-0.9h-1.1c-0.1,0.1-0.1,0.3-0.2,0.4c-0.1,0.1-0.1,0.3-0.2,0.4
				H14l1.1-2.9H15.7z M15.4,22.1l-0.4,1h0.8L15.4,22.1z"/>
			<polygon id="XMLID_353_" class="st0" points="17.4,24.4 17.4,21.4 18,21.4 18,23.9 19.5,23.9 19.5,24.4 			"/>
			<path id="XMLID_351_" class="st0" d="M18,21.5V24h1.5v0.4h-2v-2.9H18z"/>
			<polygon id="XMLID_350_" class="st0" points="20.1,24.4 20.1,21.4 20.7,21.4 20.7,23.9 22.2,23.9 22.2,24.4 			"/>
			<path id="XMLID_348_" class="st0" d="M20.7,21.5V24h1.5v0.4h-2v-2.9H20.7z"/>
			<rect id="XMLID_347_" x="22.7" y="21.4" class="st0" width="0.6" height="3"/>
			<path id="XMLID_344_" class="st0" d="M23.3,21.5v2.9h-0.5v-2.9H23.3z"/>
			<polygon id="XMLID_342_" class="st0" points="26,24.4 24.7,22.3 24.7,24.4 24.1,24.4 24.1,21.4 24.8,21.4 26,23.5 26,21.4 
				26.6,21.4 26.6,24.4 			"/>
			<path id="XMLID_339_" class="st0" d="M24.8,21.5l1.3,2.2v-2.2h0.5v2.9H26l-1.3-2.3v2.3h-0.5v-2.9H24.8z"/>
		</g>
	</g>
	<g id="XMLID_8_">
		<g id="XMLID_12_">
			<g id="XMLID_23_">
				<path class="st0" d="M14.2,11.2c-0.7-2.2-1.7-3.4-3.6-4.3C12.4,6,13.5,4.6,14.2,2c0.6,2.5,1.5,3.9,3.7,4.9
					C16.1,7.8,15,8.9,14.2,11.2z"/>
			</g>
			<g id="XMLID_17_">
				<path class="st0" d="M14.2,11.2c-2.3-1.3-3.4-2.5-3.7-4.3C8.8,7.7,7.1,7.6,4.2,6.6c2.5,1.9,3.7,3.6,3.9,6.1
					C9.2,10.8,11.2,10.2,14.2,11.2z"/>
			</g>
			<g id="XMLID_1_">
				<path class="st0" d="M14.2,11.2c2.3-1.3,3.4-2.5,3.7-4.3c1.7,0.8,3.5,0.8,6.3-0.3c-2.5,1.9-3.7,3.6-3.9,6.1
					C19.2,10.8,17.2,10.2,14.2,11.2z"/>
			</g>
		</g>
		<circle id="XMLID_11_" class="st0" cx="3.7" cy="6.2" r="0.7"/>
		<circle id="XMLID_10_" class="st0" cx="14.2" cy="1.3" r="0.7"/>
		<circle id="XMLID_9_" class="st0" cx="24.8" cy="6.3" r="0.7"/>
	</g>
	<g id="XMLID_5_">
		<path id="XMLID_7_" class="st0" d="M14.1,14.5c3.4,0,6.4,1.8,8.1,4.5l2.9-1.9c-2.3-3.6-6.4-6-11-6c-5.9,0-10.8,3.9-12.4,9.2h3.7
			C6.8,16.9,10.2,14.5,14.1,14.5z"/>
		<path id="XMLID_6_" class="st0" d="M23.1,27.2c-1.3,3.7-4.8,6.3-8.9,6.3c-4.7,0-8.6-3.4-9.3-7.9H1.3C2.1,32,7.5,36.9,14.1,36.9
			c5.7,0,10.6-3.7,12.3-8.8L23.1,27.2z"/>
	</g>
	<g>
		<path class="st0" d="M11.4,30.1h-0.3l-1.1,0H9.7V28h1.7V30.1z M11.1,28.8v-0.5H10v0.5H11.1z M11.1,29.6v-0.5H10v0.5H11.1z
			 M13.6,26v1.7H9.7V26H13.6z M13.2,26.7v-0.4h-3.1v0.4H13.2z M13.2,27h-3.1v0.4h3.1V27z M13.6,30.1h-0.3l-1.1,0h-0.3V28h1.8V30.1z
			 M13.3,28.8v-0.5h-1.1v0.5H13.3z M13.3,29.6v-0.5h-1.1v0.5H13.3z"/>
		<path class="st0" d="M15.2,29c0,0.4-0.1,0.8-0.2,1.1L14.7,30c0.1-0.3,0.1-0.6,0.2-1L15.2,29z M16.3,28.6l-0.3,0.1
			c0-0.1,0-0.2-0.1-0.2c-0.4,0.1-0.8,0.2-1.2,0.3l-0.1-0.3c0.1,0,0.1-0.1,0.2-0.1c0.2-0.2,0.4-0.5,0.6-0.9c-0.2,0-0.5,0.1-0.7,0.1
			l-0.1-0.3c0,0,0.1-0.1,0.1-0.1c0.2-0.4,0.4-0.8,0.6-1.3l0.3,0.1c-0.2,0.5-0.4,1-0.7,1.3c0.2,0,0.4-0.1,0.6-0.1
			c0.1-0.2,0.2-0.4,0.3-0.6l0.3,0.1c-0.4,0.8-0.8,1.4-1.1,1.7c0.2,0,0.5-0.1,0.7-0.2c0-0.1-0.1-0.3-0.1-0.4l0.3-0.1
			C16.2,28,16.3,28.2,16.3,28.6z M15.8,29.9l-0.3,0.1c0-0.4-0.1-0.7-0.1-1l0.3-0.1C15.7,29.2,15.8,29.5,15.8,29.9z M16.4,29.5
			l-0.3,0.1c-0.1-0.3-0.1-0.6-0.2-0.8l0.3-0.1C16.3,29,16.3,29.2,16.4,29.5z M18.9,27.9v0.3h-1.1v0.5h1v0.3h-1v0.6
			c0.2,0,0.4,0,0.6,0c0.2,0,0.4,0,0.6,0l-0.1,0.3c-0.2,0-0.3,0-0.5,0c-0.6,0-1-0.1-1.2-0.2c-0.2-0.1-0.3-0.3-0.4-0.5
			c-0.1,0.3-0.3,0.5-0.4,0.8l-0.2-0.2c0.3-0.4,0.5-0.9,0.6-1.5l0.3,0c0,0.2,0,0.4-0.1,0.6c0.1,0.3,0.3,0.5,0.5,0.6c0,0,0.1,0,0.1,0
			v-1.4h-1.1v-0.3H18.9z M18.6,26v1.6h-1.9V26H18.6z M18.3,26.7v-0.4H17v0.4H18.3z M18.3,26.9H17v0.4h1.3V26.9z"/>
	</g>
</g>
</svg>
